<?xml version="1.0" encoding="UTF-8" standalone="no"?>
<!-- Created with Inkscape (http://www.inkscape.org/) -->

<svg
   width="126.73891mm"
   height="129.41701mm"
   viewBox="0 0 126.73891 129.41701"
   version="1.1"
   id="svg1"
   xml:space="preserve"
   inkscape:version="1.3.2 (091e20e, 2023-11-25, custom)"
   sodipodi:docname="harpia_logo.svg"
   xmlns:inkscape="http://www.inkscape.org/namespaces/inkscape"
   xmlns:sodipodi="http://sodipodi.sourceforge.net/DTD/sodipodi-0.dtd"
   xmlns="http://www.w3.org/2000/svg"
   xmlns:svg="http://www.w3.org/2000/svg"><sodipodi:namedview
     id="namedview1"
     pagecolor="#ffffff"
     bordercolor="#000000"
     borderopacity="0.25"
     inkscape:showpageshadow="2"
     inkscape:pageopacity="0.0"
     inkscape:pagecheckerboard="0"
     inkscape:deskcolor="#d1d1d1"
     inkscape:document-units="mm"
     inkscape:zoom="1.4412757"
     inkscape:cx="-186.98713"
     inkscape:cy="417.68553"
     inkscape:window-width="4480"
     inkscape:window-height="2396"
     inkscape:window-x="-12"
     inkscape:window-y="-12"
     inkscape:window-maximized="1"
     inkscape:current-layer="layer1" /><defs
     id="defs1" /><g
     inkscape:label="Layer 1"
     inkscape:groupmode="layer"
     id="layer1"
     transform="translate(-39.183786,-35.391369)"><path
       style="fill:#225500;stroke-width:0.81315"
       d="m 95.962267,151.81377 c -36.520165,-5.56045 -56.714548,-45.72632 -37.816949,-75.2165 1.394576,-2.176271 1.348178,-2.246007 1.3599,2.043851 0.01418,5.189371 0.925742,8.081775 3.697705,11.732871 0.654414,0.861964 1.123468,1.633584 1.042342,1.714712 -0.495603,0.495599 -4.291666,-2.555923 -5.439246,-4.372424 -0.98019,-1.551538 -1.169073,-1.208112 -0.582687,1.059451 0.823858,3.185862 3.069121,6.762002 5.451826,8.68338 1.3332,1.07509 1.693953,1.71202 0.822056,1.45139 -2.832574,-0.84668 -4.986609,-2.165616 -6.970549,-4.268126 -1.890161,-2.003128 -1.732666,-2.066854 -2.122015,0.858718 -0.938537,7.052177 0.34599,16.039727 3.219049,22.523007 0.715457,1.61448 0.884426,1.45743 1.045561,-0.97178 0.195573,-2.94839 1.746568,-8.34455 2.398445,-8.34455 0.05016,0 0.03436,1.52832 -0.03511,3.39627 -0.138263,3.71754 0.0477,5.58309 0.929851,9.32813 0.532631,2.26121 1.127022,3.62501 1.158664,2.65851 0.05024,-1.53454 0.474357,-5.19906 0.770735,-6.65943 0.66345,-3.26905 1.034003,-3.20747 1.233705,0.20505 0.464402,7.93574 4.536015,16.03383 10.814914,21.50995 1.981963,1.72857 2.200118,1.58903 0.829109,-0.53034 -1.941176,-3.00075 -3.594792,-7.16266 -4.279041,-10.76973 -0.564747,-2.9771 -0.369535,-3.26817 0.73045,-1.08911 2.175467,4.30958 7.396906,10.50337 12.274874,14.56074 3.307484,2.75108 4.156428,3.12198 2.78863,1.21834 -4.218716,-5.8714 -4.519012,-6.7568 -1.643261,-4.84501 4.88792,3.2495 9.764842,8.36614 11.849662,12.43216 1.176823,2.29516 0.999813,2.37996 -3.52861,1.69047 z m 8.899893,-0.31009 c 0.70857,-3.54286 7.84258,-11.16592 13.57116,-14.50152 1.47774,-0.86046 1.13396,-0.15337 -2.45468,5.04876 -1.38701,2.01062 -1.13919,2.11483 1.0558,0.44393 5.01824,-3.82006 10.92665,-10.72747 13.67539,-15.98765 0.81719,-1.56382 1.05912,-1.55949 0.88089,0.0158 -0.46616,4.12036 -2.05148,8.26138 -5.06087,13.21955 -0.82646,1.36164 -0.10827,0.92163 2.28243,-1.39845 6.16721,-5.98496 9.46621,-12.92041 10.09256,-21.21742 0.27444,-3.63543 1.37669,-0.49273 1.73274,4.94033 0.16829,2.56803 0.32633,2.64053 1.01116,0.46387 1.11551,-3.54558 1.57006,-8.56849 1.14381,-12.6398 -0.15596,-1.48971 -0.15328,-1.50094 0.247,-1.0384 0.93089,1.07572 2.16984,5.89116 2.20458,8.5685 0.0366,2.82068 0.36328,2.59561 1.79189,-1.2345 2.37983,-6.38033 3.37005,-15.83053 2.29128,-21.867064 -0.26885,-1.504423 -0.37489,-1.57285 -1.04148,-0.672035 -1.68156,2.272468 -3.93872,3.89827 -6.87918,4.95497 -1.88555,0.67762 -1.8619,0.46397 0.15921,-1.43734 2.67375,-2.515269 4.38788,-5.297207 5.18546,-8.415731 0.6563,-2.566096 0.43277,-3.278397 -0.47149,-1.50248 -0.84881,1.667004 -5.2276,5.521079 -5.71686,5.031807 -0.0637,-0.06367 0.38284,-0.77415 0.99234,-1.57877 2.84115,-3.750731 3.99954,-7.34555 3.99494,-12.397376 -0.003,-3.886187 -0.067,-3.866151 1.97415,-0.623402 14.56856,23.145051 3.50943,56.401031 -23.05532,69.329811 -7.29108,3.5485 -20.00037,6.46194 -19.60691,4.49463 z m -2.90004,-5.2893 c -0.13312,-0.33502 -1.1888,-3.46519 -2.345973,-6.95593 -3.1143,-9.39463 -4.386525,-11.95678 -7.422549,-14.94829 -4.454927,-4.38962 -11.550062,-6.56686 -17.267148,-5.29867 -1.567306,0.34768 -1.796386,0.23866 -1.201865,-0.57191 1.202369,-1.63931 3.56539,-2.63309 8.028642,-3.37648 4.740415,-0.78955 6.519952,-1.62942 8.900495,-4.20069 1.328392,-1.43483 1.367106,-1.58548 0.904823,-3.52075 -0.384506,-1.60963 -0.289921,-1.58152 -1.526476,-0.45358 -6.159165,5.61814 -16.011314,-0.0195 -14.082783,-8.058529 0.320592,-1.33638 0.412196,-1.22313 -1.411115,-1.74455 -3.447326,-0.985845 -5.738099,-2.531714 -6.583388,-4.442632 -0.570275,-1.289199 -0.359955,-1.461595 0.964292,-0.790404 2.596682,1.316122 5.216514,1.952199 10.476977,2.543725 8.036094,0.903645 11.736329,2.968681 14.176256,7.91149 1.077946,2.1837 0.962958,2.11902 1.874263,1.05437 0.389876,-0.45548 1.387886,-1.18498 2.217816,-1.62109 2.931653,-1.54054 3.204823,-8.858919 0.52902,-14.172376 -1.0678,-2.120361 -7.681857,-10.534859 -9.404472,-11.964506 -1.501017,-1.245728 -7.456569,8.31906 -7.456569,11.975466 0,0.953719 -0.369701,0.821053 -1.123253,-0.403069 -1.510314,-2.45345 -1.631874,-6.890398 -0.278039,-10.148418 0.55881,-1.344786 -2.695267,1.417904 -4.117956,3.49611 -0.988324,1.443706 -1.953473,3.457591 -2.363038,4.930716 -0.522669,1.879944 -0.91807,1.687619 -1.516567,-0.737664 -0.913652,-3.702382 1.040278,-8.302716 4.796471,-11.292852 2.064657,-1.643578 0.499124,-1.406122 -3.218146,0.488125 -3.703568,1.887263 -6.917504,5.354204 -8.123629,8.763137 -0.651003,1.83997 -0.76356,1.896793 -1.423193,0.718459 -3.017632,-5.390553 -0.324115,-12.20323 6.114732,-15.465926 1.455525,-0.737546 1.600052,-0.859641 1.087395,-0.918635 -2.653299,-0.30533 -12.029442,3.26988 -16.823014,6.414767 -2.727758,1.789579 -2.8971,1.658921 -1.206478,-0.930852 5.531913,-8.474043 18.351482,-12.704289 31.167913,-10.284886 2.977817,0.56213 3.458722,0.507511 1.613491,-0.183267 C 79.81911,59.741206 71.6331,58.980513 65.956806,60.16976 c -3.36027,0.704017 -3.372896,0.346694 -0.08051,-2.278842 7.429876,-5.92502 17.360952,-6.119028 26.205787,-0.511935 2.301938,1.459295 2.534181,1.496138 1.289459,0.204549 -2.358734,-2.447531 -6.241447,-4.786131 -9.349848,-5.631522 -1.803021,-0.490369 -1.871236,-0.753105 -0.409852,-1.578729 4.743163,-2.679716 9.766286,-1.513498 14.144885,3.284008 1.50541,1.649449 1.81713,1.646587 0.86428,-0.0082 -0.69469,-1.206243 -1.73455,-2.526423 -3.275511,-4.158519 -1.166185,-1.235157 -1.166185,-1.235157 -0.398662,-1.555846 2.925323,-1.222277 10.314566,-1.316603 14.408266,-0.18391 1.53549,0.424854 1.54996,0.323527 -0.32272,2.259228 -1.51363,1.564556 -3.17655,4.025064 -3.17035,4.690976 0.002,0.180194 0.48815,-0.22268 1.08109,-0.89526 4.23582,-4.804923 9.409,-6.061848 14.25666,-3.463942 1.51813,0.813572 1.43501,1.091725 -0.49576,1.659165 -3.46647,1.018754 -8.92914,4.554521 -9.93216,6.428684 -0.2575,0.48114 -0.25096,0.478123 1.54149,-0.711205 9.49034,-6.297059 20.49424,-5.859341 27.84566,1.107656 2.08006,1.971277 2.05611,2.034596 -0.53869,1.423987 -5.66629,-1.333402 -17.45317,-0.125461 -21.69257,2.223101 -0.68345,0.37861 -0.7053,0.414535 -0.18753,0.308134 13.96461,-2.869668 25.01847,-0.403468 32.00847,7.14134 3.41507,3.686127 3.89353,5.375013 1.01614,3.586833 -5.46874,-3.398573 -12.10846,-6.027597 -16.66799,-6.59975 -1.3117,-0.164597 -1.13372,0.12159 0.63421,1.019743 6.23895,3.16954 8.79561,8.792166 6.6299,14.580527 -0.68808,1.839059 -0.97974,2.141087 -1.29976,1.345982 -2.32953,-5.787663 -5.8986,-9.306826 -11.27758,-11.119888 -1.95889,-0.660269 -2.25834,-0.610154 -1.18837,0.198881 3.60935,2.729114 5.49519,6.093259 5.45986,9.73985 -0.0324,3.345612 -0.92829,4.912681 -1.50971,2.640807 -0.6225,-2.432397 -2.46145,-5.25274 -4.93171,-7.563522 -1.41406,-1.32279 -2.00986,-1.650685 -1.70802,-0.94 1.46548,3.450419 1.39439,7.569085 -0.18009,10.434564 -0.62044,1.129164 -0.92529,1.019243 -1.09133,-0.393498 -0.33845,-2.879637 -2.33734,-6.54442 -5.20894,-9.550079 -2.05705,-2.153105 -1.97684,-2.160162 -4.20155,0.369593 -8.26046,9.393116 -9.74914,12.667253 -9.0241,19.84719 0.34705,3.436709 0.31085,3.349749 1.64993,3.962799 0.6391,0.29259 1.6953,1.03635 2.34711,1.65281 0.65182,0.61647 1.21809,1.08158 1.25838,1.03359 0.0402,-0.0479 0.32993,-0.65623 0.64364,-1.35164 2.40059,-5.321409 5.81099,-7.2982 14.53337,-8.42407 5.13301,-0.662561 9.81033,-1.844255 10.659,-2.69293 0.87507,-0.875071 0.99873,0.482514 0.1506,1.653319 -1.22343,1.688895 -3.21252,2.901519 -6.09077,3.713152 -1.36172,0.38399 -1.36172,0.38399 -1.36275,3.269159 -0.003,8.05125 -9.23522,12.17775 -14.21897,6.35534 -0.87592,-1.02331 -1.03623,-0.92656 -1.39773,0.84343 -0.6417,3.14204 2.83407,6.19827 8.20023,7.21044 5.03858,0.95039 5.74824,1.1249 7.01238,1.72441 1.21435,0.57588 2.87724,2.05852 2.87724,2.56538 0,0.26883 0.14718,0.27768 -2.20515,-0.1326 -11.10713,-1.93722 -18.60736,4.17053 -23.48479,19.12463 -2.6819,8.22271 -3.28233,9.51315 -3.80925,8.18698 z m -6.449651,-31.99299 c 0.327378,-1.35043 1.136208,-2.95801 2.214078,-4.40057 0.9901,-1.32509 0.96149,-1.48402 -0.18121,-1.00667 -1.837241,0.76745 -2.863322,2.38529 -2.866273,4.51925 -0.0033,2.42075 0.36634,2.81466 0.833405,0.88799 z m 14.799061,-0.27146 c 0.21379,-2.38014 -0.76626,-4.22749 -2.69548,-5.08088 -1.2341,-0.54591 -1.31168,-0.38532 -0.41089,0.85055 0.96095,1.31837 1.76927,2.92766 2.08714,4.15526 0.13738,0.5305 0.30202,1.14373 0.3659,1.36272 0.20339,0.69727 0.53349,0.0466 0.65333,-1.28765 z m -23.911278,-8.33462 c 1.965235,-0.91511 3.325113,-2.95758 2.543905,-3.82081 -0.819752,-0.90581 -1.118031,-0.91245 -1.48547,-0.033 -1.090896,2.61089 -3.848017,3.22612 -5.678195,1.26704 -0.691623,-0.74033 -0.868918,-2.55026 -0.348418,-3.556809 0.438124,-0.84723 0.397882,-0.8968 -0.841412,-1.03648 -0.956334,-0.1078 -0.9853,-0.093 -1.301501,0.66375 -1.771671,4.240199 2.868242,8.492049 7.111091,6.516349 z m 36.066488,0.25769 c 3.61428,-1.08286 5.12874,-8.294399 1.57348,-7.492559 -1.03606,0.23367 -1.03022,0.22072 -0.53605,1.19001 1.42102,2.787249 -1.33922,5.573159 -4.166,4.204739 -0.98825,-0.47841 -1.59046,-1.17427 -1.84729,-2.13462 -0.20414,-0.76328 -0.45563,-0.77304 -1.31072,-0.0509 -2.22925,1.88268 2.81895,5.32224 6.28658,4.28331 z M 108.33315,79.845696 c 1.30163,-1.539316 3.02011,-3.508365 3.81884,-4.375653 2.02972,-2.203967 1.36421,-2.962757 -3.93778,-4.48973 -4.20306,-1.210477 -3.96596,-1.69357 -3.31135,6.746471 0.48148,6.207889 0.14728,6.001447 3.43029,2.118912 z m -8.640913,1.48477 c 0.446263,-4.548903 0.797473,-10.78017 0.617743,-10.959909 -0.559593,-0.559585 -8.383225,2.098477 -8.969725,3.047456 -0.07391,0.119605 1.251501,1.791513 2.945383,3.71535 1.693869,1.923838 3.462279,3.957752 3.929789,4.519817 1.11929,1.345705 1.31739,1.30242 1.47681,-0.322714 z"
       id="path7" /></g></svg>
